<svg height="48" viewBox="0 96 960 960" width="48" xmlns="http://www.w3.org/2000/svg"><path d="m299.88282 526c13.922 0 25.76314 4.82552 35.5078 14.49218 9.74534 9.66668 14.60938 21.4693 14.60938 35.39064 0 13.922-4.82552 25.76314-14.49218 35.5078-9.66668 9.74534-21.4693 14.60938-35.39064 14.60938-13.922 0-25.76314-4.82552-35.5078-14.49218-9.74534-9.66668-14.60938-21.4693-14.60938-35.39064 0-13.922 4.82552-25.76314 14.49218-35.5078 9.66668-9.74534 21.4693-14.60938 35.39064-14.60938zm.23518 280c13.92133 0 25.71533-4.87267 35.382-14.618 9.66667-9.74467 14.5-21.578 14.5-35.5 0-13.92133-4.87267-25.71533-14.618-35.382-9.74467-9.66667-21.578-14.5-35.5-14.5-13.92133 0-25.71533 4.87267-35.382 14.618-9.66667 9.74467-14.5 21.578-14.5 35.5 0 13.92133 4.87267 25.71533 14.618 35.382 9.74467 9.66667 21.578 14.5 35.5 14.5zm0-360c13.92133 0 25.71533-4.87267 35.382-14.618 9.66667-9.74467 14.5-21.578 14.5-35.5 0-13.92133-4.87267-25.71533-14.618-35.382-9.74467-9.66667-21.578-14.5-35.5-14.5-13.92133 0-25.71533 4.87267-35.382 14.618-9.66667 9.74467-14.5 21.578-14.5 35.5 0 13.92133 4.87267 25.71533 14.618 35.382 9.74467 9.66667 21.578 14.5 35.5 14.5zm360 180c13.92133 0 25.71533-4.87267 35.382-14.618 9.66667-9.74467 14.5-21.578 14.5-35.5 0-13.92133-4.87267-25.71533-14.618-35.382-9.74467-9.66667-21.578-14.5-35.5-14.5-13.92133 0-25.71533 4.87267-35.382 14.618-9.66667 9.74467-14.5 21.578-14.5 35.5 0 13.92133 4.87267 25.71533 14.618 35.382 9.74467 9.66667 21.578 14.5 35.5 14.5zm0 180c13.92133 0 25.71533-4.87267 35.382-14.618 9.66667-9.74467 14.5-21.578 14.5-35.5 0-13.92133-4.87267-25.71533-14.618-35.382-9.74467-9.66667-21.578-14.5-35.5-14.5-13.92133 0-25.71533 4.87267-35.382 14.618-9.66667 9.74467-14.5 21.578-14.5 35.5 0 13.92133 4.87267 25.71533 14.618 35.382 9.74467 9.66667 21.578 14.5 35.5 14.5zm0-360c13.92133 0 25.71533-4.87267 35.382-14.618 9.66667-9.74467 14.5-21.578 14.5-35.5 0-13.92133-4.87267-25.71533-14.618-35.382-9.74467-9.66667-21.578-14.5-35.5-14.5-13.92133 0-25.71533 4.87267-35.382 14.618-9.66667 9.74467-14.5 21.578-14.5 35.5 0 13.92133 4.87267 25.71533 14.618 35.382 9.74467 9.66667 21.578 14.5 35.5 14.5zm-480.118 490c-16 0-30-6-42-18s-18-26-18-42v-600c0-16 6-30 18-42s26-18 42-18h600c16 0 30 6 42 18s18 26 18 42v600c0 16-6 30-18 42s-26 18-42 18z" fill-rule="evenodd"/></svg>