<svg height="48" viewBox="0 96 960 960" width="48" xmlns="http://www.w3.org/2000/svg"><path d="m98 519 168-168q14-14 33-20t39-2l77 14q-55 62-89 117.5t-63 129.5zm202 89q27-73 68-137.5t93-116.5q88-88 201-131.5t211-26.5q17 98-26 211t-131 201q-52 52-117 93t-138 68zm286-125q20 20 49.5 20t49.5-20q20-20 20-49.5t-20-49.5q-20-20-49.5-20t-49.5 20q-20 20-20 49.5t20 49.5zm-35 488-72-165q74-29 129.5-63t117.5-89l14 77q4 20-2 39.5t-20 33.5zm-389-233q35-35 85-35.5t85 34.5q35 35 35 85t-35 85q-26 26-81 43t-164 32q15-109 32-163.5t43-80.5z"/></svg>