<?xml version="1.0" encoding="UTF-8" standalone="no"?>
<svg
   xmlns:dc="http://purl.org/dc/elements/1.1/"
   xmlns:cc="http://creativecommons.org/ns#"
   xmlns:rdf="http://www.w3.org/1999/02/22-rdf-syntax-ns#"
   xmlns:svg="http://www.w3.org/2000/svg"
   xmlns="http://www.w3.org/2000/svg"
   xmlns:sodipodi="http://sodipodi.sourceforge.net/DTD/sodipodi-0.dtd"
   xmlns:inkscape="http://www.inkscape.org/namespaces/inkscape"
   height="48"
   viewBox="0 96 960 960"
   width="48"
   version="1.1"
   id="svg4"
   sodipodi:docname="diceFuck.svg"
   inkscape:version="0.92.5 (2060ec1f9f, 2020-04-08)">
  <metadata
     id="metadata10">
    <rdf:RDF>
      <cc:Work
         rdf:about="">
        <dc:format>image/svg+xml</dc:format>
        <dc:type
           rdf:resource="http://purl.org/dc/dcmitype/StillImage" />
        <dc:title></dc:title>
      </cc:Work>
    </rdf:RDF>
  </metadata>
  <defs
     id="defs8" />
  <sodipodi:namedview
     pagecolor="#ffffff"
     bordercolor="#666666"
     borderopacity="1"
     objecttolerance="10"
     gridtolerance="10"
     guidetolerance="10"
     inkscape:pageopacity="0"
     inkscape:pageshadow="2"
     inkscape:window-width="1440"
     inkscape:window-height="1088"
     id="namedview6"
     showgrid="false"
     inkscape:zoom="11.313709"
     inkscape:cx="11.369481"
     inkscape:cy="15.413634"
     inkscape:window-x="0"
     inkscape:window-y="837"
     inkscape:window-maximized="0"
     inkscape:current-layer="svg4" />
  <path
     d="m 180,936 c -16,0 -30,-6 -42,-18 -12,-12 -18,-26 -18,-42 V 276 c 0,-16 6,-30 18,-42 12,-12 26,-18 42,-18 h 600 c 16,0 30,6 42,18 12,12 18,26 18,42 v 600 c 0,16 -6,30 -18,42 -12,12 -26,18 -42,18 z m 0,-60 H 780 V 276 H 180 Z m 0,-600 v 600 z"
     id="path2"
     inkscape:connector-curvature="0"
     sodipodi:nodetypes="ssssssssssssscccccccc" />
  <g
     aria-label="Fuck"
     style="font-style:normal;font-weight:normal;font-size:266.65969849px;line-height:125%;font-family:sans-serif;letter-spacing:0px;word-spacing:0px;fill:#000000;fill-opacity:1;stroke:none;stroke-width:20px;stroke-linecap:butt;stroke-linejoin:miter;stroke-opacity:1"
     id="text3941">
    <path
       d="m 247.24034,500.01216 h 89.37267 v 17.70787 h -68.33155 v 45.83214 h 61.66506 v 17.70787 h -61.66506 v 74.26889 h -21.04112 z"
       style="font-size:213.32775879px;stroke-width:20px"
       id="path3943"
       inkscape:connector-curvature="0" />
    <path
       d="m 355.46668,609.48847 v -70.62316 h 19.16617 v 69.89401 q 0,16.56207 6.45816,24.89518 6.45817,8.22895 19.3745,8.22895 15.52042,0 24.47852,-9.89557 9.06227,-9.89558 9.06227,-26.97846 v -66.14411 h 19.16616 V 655.52893 H 434.0063 v -17.9162 q -6.97899,10.62472 -16.24958,15.83292 -9.16643,5.10404 -21.35361,5.10404 -20.10364,0 -30.52003,-12.49968 -10.4164,-12.49967 -10.4164,-36.56154 z m 48.22791,-73.43558 z"
       style="font-size:213.32775879px;stroke-width:20px"
       id="path3945"
       inkscape:connector-curvature="0" />
    <path
       d="m 576.60673,543.34436 v 17.9162 q -8.12479,-4.47905 -16.35374,-6.66649 -8.12478,-2.29161 -16.4579,-2.29161 -18.64535,0 -28.95758,11.87469 -10.31223,11.77053 -10.31223,33.12414 0,21.3536 10.31223,33.22829 10.31223,11.77053 28.95758,11.77053 8.33312,0 16.4579,-2.18744 8.22895,-2.29161 16.35374,-6.77066 v 17.70787 q -8.02062,3.7499 -16.66623,5.62485 -8.54144,1.87496 -18.22869,1.87496 -26.35348,0 -41.87391,-16.56207 -15.52042,-16.56207 -15.52042,-44.68633 0,-28.54093 15.62459,-44.89466 15.72875,-16.35374 43.01971,-16.35374 8.85393,0 17.29121,1.87495 8.43728,1.77078 16.35374,5.41652 z"
       style="font-size:213.32775879px;stroke-width:20px"
       id="path3947"
       inkscape:connector-curvature="0" />
    <path
       d="m 609.21005,493.44983 h 19.27033 v 95.72667 l 57.18601,-50.31119 h 24.47852 l -61.87338,54.58191 64.47748,62.08171 h -24.99935 l -59.26928,-56.97768 v 56.97768 h -19.27033 z"
       style="font-size:213.32775879px;stroke-width:20px"
       id="path3949"
       inkscape:connector-curvature="0" />
  </g>
</svg>
