<svg height="32" viewBox="0 0 32 32" width="32" xmlns="http://www.w3.org/2000/svg"><path d="m30.7649294 5.22655644-3.0190616-3.01906156c-1.5095308-1.50953078-4.2541322-1.50953078-5.763663 0l-18.66328963 18.66328962c-.13723007.1372301-.13723007.2744602-.27446015.4116902v.1372301.1372301l-1.37230071 8.2338042c-.13723007.4116903.13723008.8233805.41169022 1.2350707.13723007.2744601.41169021.4116902.82338042.4116902h.27446015l8.2338043-1.3723007h.13723.1372301c.1372301 0 .2744601-.1372301.4116902-.2744602l18.6632897-18.8005197c1.6467608-1.50953076 1.6467608-4.25413218 0-5.76366296zm-7.2731938 9.19441476-4.9402826-4.94028256 3.1562917-3.15629163 4.9402825 4.94028259z"/></svg>