<svg height="32" viewBox="0 0 32 32" width="32" xmlns="http://www.w3.org/2000/svg"><path d="m28.7612121 8.285.0254546-.02583333-6.3212122-6.39805556-1.7987878 1.82555556 3.580606 3.63388889c-1.5951515.62-2.7321212 2.17861111-2.7321212 4.01277774 0 2.3766667 1.9006061 4.3055556 4.2424243 4.3055556.6024242 0 1.1793939-.1291667 1.6969697-.3616667v12.4172222c0 .9472223-.7636364 1.7222223-1.6969697 1.7222223-.9333334 0-1.6969697-.775-1.6969697-1.7222223v-7.75c0-1.9030555-1.5187879-3.4444444-3.3939394-3.4444444h-1.6969697v-12.05555556c0-1.90305555-1.5187879-3.44444444-3.3939394-3.44444444h-10.18181821c-1.87515151 0-3.39393939 1.54138889-3.39393939 3.44444444v27.55555556h16.969697v-12.9166667h2.5454545v8.6111111c0 2.3766667 1.9006061 4.3055556 4.2424243 4.3055556 2.3418181 0 4.2424242-1.9288889 4.2424242-4.3055556v-16.3611111c0-1.1883333-.4751515-2.26472219-1.2387879-3.0483333zm-12.7612121 4.715h-11v-9h11zm9.5 0c-.825 0-1.5-.675-1.5-1.5s.675-1.5 1.5-1.5 1.5.675 1.5 1.5-.675 1.5-1.5 1.5z"/></svg>