<svg height="32" viewBox="0 0 32 32" width="32" xmlns="http://www.w3.org/2000/svg"><path d="m31.1111111 0c-.0977778 0-.1866667.00888889-.2755555.04444444l-9.5022223 3.68888889-10.6666666-3.73333333-10.01777781 3.37777778c-.37333333.12444444-.64888889.44444444-.64888889.85333333v26.87999999c0 .4888889.4.8888889.88888889.8888889.09777778 0 .18666667-.0088889.27555555-.0444444l9.50222226-3.6888889 10.6666666 3.7333333 10.0266667-3.3688889c.3733333-.1333333.64-.4533333.64-.8622222v-26.88000001c0-.48888889-.4-.88888889-.8888889-.88888889zm-11.1111111 28-10-3.7589286v-21.2410714l10 3.75892857z"/></svg>