<svg height="32" viewBox="0 0 32 32" width="32" xmlns="http://www.w3.org/2000/svg"><path d="m6.47592062 7.48104714c-.53763718 0-.97037444.43375718-.97037444.97262593v13.26588413l-1.89215029-1.5913849c-.18224554-.1532721-.40285874-.2290395-.62259913-.2309267-.28252219-.0024282-.56366444.1174124-.76027825.3522646-.34953614.417515-.29554415 1.0356494.12101644 1.3859863l1.50389359 1.2648617v.0001094l1.06191147.8930512.81774218.6877593c.00056328.0004922.00114297.0009133.00170625.0013891l.75002429.6307218.00021875.0003281.00021875-.0003281.75055858-.6312561.39562633-.3326111 1.48530865-1.2490537-.00010938-.0001094 1.50389369-1.2648617c.4165607-.3503368.4705525-.9684713.1210163-1.3859863-.3495357-.417515-.96620945-.4716747-1.3827696-.1213379l-1.89215083 1.5913849v-13.26588409c0-.53886874-.43284445-.97262592-.97048109-.97262592h-.02221679zm7.24240168.19535852c-.6059325 0-1.0937412.48781249-1.0937412 1.09374998 0 .60593695.4878087 1.09374999 1.0937412 1.09374999h15.187937c.605932 0 1.0937407-.48781304 1.0937407-1.09374999 0-.60593749-.4878087-1.09374998-1.0937407-1.09374998zm0 4.99504074c-.6059325 0-1.0937412.4878125-1.0937412 1.09375s.4878087 1.09375 1.0937412 1.09375h11.8464728c.6059326 0 1.0937407-.4878125 1.0937407-1.09375s-.4878081-1.09375-1.0937407-1.09375zm0 4.9949337c-.6059325 0-1.0937412.4878124-1.0937412 1.0937499s.4878087 1.09375 1.0937412 1.09375h8.5051158c.6059326 0 1.0937407-.4878125 1.0937407-1.09375s-.4878081-1.0937499-1.0937407-1.0937499zm0 4.9950408c-.6059325 0-1.0937412.4878124-1.0937412 1.0937499s.4878087 1.09375 1.0937412 1.09375h5.1636522c.6059326 0 1.0937413-.4878125 1.0937413-1.09375s-.4878087-1.0937499-1.0937413-1.0937499z" fill-rule="evenodd"/></svg>