<svg height="32" viewBox="0 0 32 32" width="32" xmlns="http://www.w3.org/2000/svg"><path d="m15.9211079 10.1945856 9.448662-9.12284596c1.5175281-1.46519961 3.9355067-1.42277893 5.4007063.09474923 1.4651997 1.51752817 1.422779 3.93550678-.0947492 5.40070638l-9.2557795 8.93661475 9.4135636 9.088958c1.5175282 1.4651996 1.5599489 3.8831782.0947493 5.4007064s-3.8831783 1.5599488-5.4007064.0947492l-9.6064461-9.2751892-9.44866188 9.1228459c-1.51752817 1.4651997-3.93550677 1.422779-5.40070638-.0947492-1.46519961-1.5175281-1.42277893-3.9355068.09474923-5.4007064l9.25577953-8.9366147-9.09799541-8.78427146c-1.51752817-1.46519961-1.55994884-3.88317822-.09474924-5.40070638 1.46519961-1.51752817 3.88317822-1.55994884 5.40070638-.09474924z"/></svg>