<svg height="32" viewBox="0 0 32 32" width="32" xmlns="http://www.w3.org/2000/svg"><path d="m6.46898914 10.504523c-.93431827 1.616931-1.46898914 3.4937645-1.46898914 5.495477 0 6.0751322 4.92486775 11 11 11 2.0017125 0 3.878546-.5346709 5.495477-1.4689891zm3.4192904-3.65177737 15.25897486 15.25897487c1.170255-1.7480185 1.8527456-3.8501674 1.8527456-6.1117205 0-6.07513225-4.9248678-11-11-11-2.2615531 0-4.363702.68249062-6.11172046 1.85274563zm6.11172046 25.14725437c-8.836556 0-16-7.163444-16-16s7.163444-16 16-16 16 7.163444 16 16-7.163444 16-16 16z" fill-rule="evenodd"/></svg>