<svg height="32" viewBox="0 0 32 32" width="32" xmlns="http://www.w3.org/2000/svg"><path d="m16 .01138333v-5.99573125l-7.99430833 7.99430833 7.99430833 7.99430829v-5.9957312c6.625283 0 11.9914625 5.36617947 11.9914625 11.9914625 0 2.0285557-.5096372 3.927204-1.3890111 5.6060087l2.9179226 2.9179226c1.5488972-2.4782356 2.4682427-5.3861653 2.4682427-8.5239313 0-8.83371071-7.154906-15.98861667-15.9886167-15.98861667zm0 27.98007917c-6.62528303 0-11.9914625-5.3661795-11.9914625-11.9914625 0-2.0285557.50963715-3.927204 1.38901107-5.6060087l-2.91792254-2.91792256c-1.54889724 2.47823558-2.4682427 5.38616526-2.4682427 8.52393126 0 8.8337107 7.15490596 15.9886167 15.98861667 15.9886167v5.9957312l7.9943083-7.9943083-7.9943083-7.9943083z" transform="matrix(.70710678 .70710678 -.70710678 .70710678 16 -6.627417)"/></svg>